<svg width="62" height="36" fill="none" xmlns="http://www.w3.org/2000/svg"><path d="M59.304 28.079c-1.35-1.628-2.884-3.087-4.367-4.498-.528-.502-1.073-1.02-1.599-1.536-1.51-1.483-1.564-2.04-.37-3.724.828-1.16 1.704-2.323 2.552-3.447a179.36 179.36 0 002.327-3.132l.156-.218C59.46 9.5 60.966 7.406 61.768 4.88c.208-.666.427-1.646-.073-2.466-.5-.82-1.468-1.07-2.154-1.186a5.86 5.86 0 00-.988-.066l-9.54-.007h-.079c-1.442 0-2.414.682-2.971 2.087-.532 1.342-1.116 2.772-1.783 4.13-1.327 2.707-3.011 5.824-5.45 8.424l-.102.11c-.288.311-.614.663-.853.663a.405.405 0 01-.12-.021c-.506-.198-.845-1.426-.83-1.997v-.024L36.82 3.453a.877.877 0 00-.008-.115c-.242-1.8-.78-2.921-2.81-3.32A.836.836 0 0033.835 0h-9.92C22.3 0 21.41.66 20.573 1.647c-.226.264-.697.814-.463 1.48.236.677 1.004.822 1.254.869 1.241.237 1.94 1 2.139 2.332.346 2.314.388 4.783.133 7.772-.07.83-.211 1.472-.442 2.02-.054.128-.245.545-.44.545-.061 0-.24-.024-.565-.25-.77-.529-1.333-1.285-1.989-2.218-2.233-3.17-4.107-6.662-5.73-10.678-.602-1.478-1.726-2.306-3.167-2.33a285.659 285.659 0 00-4.387-.036c-1.495 0-2.882.014-4.236.042-1.159.02-1.96.37-2.383 1.038-.422.67-.395 1.548.082 2.612 3.817 8.524 7.278 14.722 11.222 20.096 2.763 3.76 5.535 6.364 8.722 8.192C23.68 35.062 27.443 36 31.826 36c.496 0 1.01-.012 1.528-.036 2.547-.125 3.491-1.051 3.61-3.542.058-1.272.196-2.607.82-3.746.392-.717.759-.717.88-.717.231 0 .52.107.828.308.555.364 1.03.85 1.42 1.276.366.404.729.812 1.092 1.22.783.882 1.593 1.793 2.44 2.657 1.851 1.893 3.891 2.725 6.235 2.545h8.746a.87.87 0 00.056-.002c.872-.058 1.627-.544 2.071-1.333.55-.977.54-2.224-.03-3.336-.646-1.257-1.483-2.331-2.218-3.215z" fill="#6B7045"/></svg>