<svg width="62" height="36" viewBox="0 0 62 36" fill="none" xmlns="http://www.w3.org/2000/svg">
<path d="M59.3043 28.0786C57.9544 26.4509 56.4204 24.9921 54.9369 23.5812C54.4094 23.0794 53.8639 22.5607 53.3382 22.0449C51.8287 20.5624 51.7737 20.0054 52.9689 18.3215C53.7957 17.1608 54.6724 15.9985 55.5202 14.8744C56.2892 13.8546 57.0844 12.8 57.8466 11.7419L58.0031 11.5244C59.4598 9.49968 60.9664 7.40605 61.7681 4.88041C61.9763 4.21408 62.1949 3.23352 61.6951 2.41358C61.1956 1.59433 60.2266 1.34439 59.541 1.22765C59.2019 1.16988 58.8652 1.16199 58.5528 1.16199L49.0128 1.15514L48.934 1.15445C47.4916 1.15445 46.5195 1.83724 45.9625 3.24209C45.4307 4.58436 44.8466 6.01372 44.18 7.37279C42.8535 10.0791 41.1687 13.1962 38.7309 15.7959L38.6278 15.9064C38.3399 16.2172 38.0138 16.5692 37.7754 16.5692C37.7389 16.5692 37.6991 16.5621 37.6541 16.5479C37.1491 16.3502 36.8101 15.1223 36.8255 14.5511C36.8257 14.5432 36.8259 14.5354 36.8259 14.5275L36.8192 3.45157C36.8192 3.41317 36.8165 3.37511 36.8115 3.33706C36.5688 1.53656 36.0313 0.41577 34.0001 0.0161742C33.9462 0.00537427 33.8911 6.10352e-05 33.8361 6.10352e-05H23.9165C22.3003 6.10352e-05 21.4099 0.659883 20.5728 1.64747C20.3468 1.91147 19.8765 2.46107 20.1096 3.12774C20.3461 3.80437 21.1139 3.94905 21.3639 3.99602C22.605 4.23328 23.3045 4.99579 23.5026 6.32812C23.8485 8.64169 23.891 11.1111 23.6364 14.0996C23.5654 14.9301 23.425 15.5716 23.1936 16.1197C23.1398 16.2476 22.9492 16.665 22.7548 16.6652C22.693 16.6652 22.5143 16.6408 22.1889 16.4156C21.4194 15.886 20.8564 15.1304 20.2001 14.197C17.9672 11.0271 16.0932 7.53513 14.4702 3.51911C13.8683 2.04073 12.7442 1.21308 11.3035 1.18874C9.7205 1.16456 8.28527 1.15291 6.91642 1.15291C5.42078 1.15291 4.03419 1.16679 2.68019 1.19508C1.52109 1.21565 0.719338 1.56467 0.297473 2.23324C-0.125075 2.90232 -0.0975994 3.78123 0.379218 4.8451C4.19614 13.369 7.65691 19.5666 11.6008 24.9411C14.3643 28.7019 17.1361 31.305 20.3229 33.1326C23.6804 35.062 27.4431 36.0001 31.8256 36.0001C32.3224 36.0001 32.8361 35.9879 33.354 35.9635C35.9005 35.8389 36.8453 34.913 36.9648 32.4224C37.0216 31.1495 37.1602 29.8146 37.7831 28.6762C38.1763 27.9589 38.5428 27.9589 38.6633 27.9589C38.8954 27.9589 39.1831 28.0663 39.4922 28.2673C40.0465 28.6308 40.5218 29.1176 40.9114 29.5429C41.2781 29.947 41.6408 30.3551 42.0038 30.7635C42.7871 31.6448 43.597 32.5559 44.4431 33.4201C46.2951 35.3128 48.3353 36.1453 50.6786 35.9646H59.4252C59.4438 35.9646 59.4625 35.9639 59.4811 35.9627C60.3527 35.9049 61.1075 35.4193 61.5521 34.6304C62.1028 33.6531 62.0917 32.4063 61.5224 31.2944C60.8764 30.0371 60.0385 28.963 59.3043 28.0786Z" fill="#6B7045"/>
</svg>
